Coordinates
version=1
nRows=14
nColumns=40
inDegrees=yes

Units are S.I. units (second, meters, Newtons, ...)
Angles are in degrees.

endheader
time	pelvis_tilt	pelvis_list	pelvis_rotation	pelvis_tx	pelvis_ty	pelvis_tz	hip_flexion_r	hip_adduction_r	hip_rotation_r	knee_angle_r	knee_angle_r_beta	ankle_angle_r	subtalar_angle_r	mtp_angle_r	hip_flexion_l	hip_adduction_l	hip_rotation_l	knee_angle_l	knee_angle_l_beta	ankle_angle_l	subtalar_angle_l	mtp_angle_l	lumbar_extension	lumbar_bending	lumbar_rotation	arm_flex_r	arm_add_r	arm_rot_r	elbow_flex_r	pro_sup_r	wrist_flex_r	wrist_dev_r	arm_flex_l	arm_add_l	arm_rot_l	elbow_flex_l	pro_sup_l	wrist_flex_l	wrist_dev_l
      1.50000000	      2.53236150	     11.50455364	     -5.93411934	     -0.98430412	      0.90291831	      0.54780704	     32.38370493	      0.91913675	    -10.99320264	     94.49274443	     94.49274443	    -10.17726994	      0.00000000	      0.00000000	     28.44836033	    -14.53371661	     14.12619864	     16.18361232	     16.18361232	    -20.23037427	      0.00000000	      0.00000000	    -35.70673780	    -16.10153010	     11.71490676	    -51.82053891	    -21.72577862	    -22.27188581	    108.16385536	     88.20049831	      0.00000000	      0.00000000	      2.99800176	    -14.75927086	    -12.64147556	    118.02322818	     78.22805122	      0.00000000	      0.00000000
      1.50500000	      3.12847909	     11.48765494	     -6.44221286	     -0.96080815	      0.89851147	      0.54885102	     33.63899813	      0.10826650	    -11.43590982	     96.03643001	     96.03643001	     -8.92025916	      0.00000000	      0.00000000	     27.59169639	    -14.63103464	     14.09002861	     18.06864386	     18.06864386	    -17.81588398	      0.00000000	      0.00000000	    -36.74643602	    -15.93555960	     12.21817701	    -52.58074068	    -21.40175872	    -22.18887938	    108.00225770	     88.26257979	      0.00000000	      0.00000000	      5.29085301	    -14.06215298	    -11.21053847	    119.11289627	     78.40964228	      0.00000000	      0.00000000
      1.51000000	      3.74829919	     11.43615741	     -6.84282816	     -0.93721425	      0.89399433	      0.54985655	     34.88471672	     -0.72855713	    -11.94228713	     97.37400799	     97.37400799	     -7.62569588	      0.00000000	      0.00000000	     26.71623589	    -14.74258560	     13.78996387	     20.19363783	     20.19363783	    -14.91515787	      0.00000000	      0.00000000	    -37.80732124	    -15.67147432	     12.51188918	    -53.12562626	    -21.03282120	    -22.07499411	    107.39645592	     88.24934158	      0.00000000	      0.00000000	      7.59575452	    -13.43109359	     -9.84090066	    120.13975453	     78.55410276	      0.00000000	      0.00000000
      1.51500000	      4.35172412	     11.36203448	     -7.09784635	     -0.91357169	      0.88938549	      0.55082712	     36.14998377	     -1.61487182	    -12.53174865	     98.49056709	     98.49056709	     -6.30168405	      0.00000000	      0.00000000	     25.86062577	    -14.87507358	     13.23524666	     22.47515118	     22.47515118	    -11.64311712	      0.00000000	      0.00000000	    -38.85925097	    -15.30080472	     12.55679292	    -53.43838535	    -20.64157607	    -21.91293292	    106.37924450	     88.21936826	      0.00000000	      0.00000000	      9.91854257	    -12.89416043	     -8.55812159	    121.10576000	     78.68388808	      0.00000000	      0.00000000
      1.52000000	      4.90438959	     11.28386429	     -7.17277215	     -0.88992446	      0.88474034	      0.55179124	     37.45396285	     -2.57902072	    -13.21785510	     99.36544015	     99.36544015	     -4.95962524	      0.00000000	      0.00000000	     25.05887905	    -15.02936143	     12.46845509	     24.82409882	     24.82409882	     -8.16441162	      0.00000000	      0.00000000	    -39.87848325	    -14.82123424	     12.31461067	    -53.50582491	    -20.23868266	    -21.68626916	    104.99123715	     88.16161956	      0.00000000	      0.00000000	     12.26678936	    -12.48682205	     -7.37967722	    122.01501971	     78.78964741	      0.00000000	      0.00000000
      1.52500000	      5.37996656	     11.22206675	     -7.04273242	     -0.86630698	      0.88014450	      0.55280899	     38.80471904	     -3.64660532	    -14.00491504	     99.97537113	     99.97537113	     -3.61451570	      0.00000000	      0.00000000	     24.33860144	    -15.20165404	     11.56379867	     27.16025760	     27.16025760	     -4.66284345	      0.00000000	      0.00000000	    -40.84402486	    -14.23613221	     11.76117701	    -53.32698876	    -19.82866661	    -21.37691533	    103.28238646	     88.00761811	      0.00000000	      0.00000000	     14.63924174	    -12.24410775	     -6.23553747	    122.92425050	     77.57720469	      0.00000000	      0.00000000
      1.53000000	      5.76033878	     11.19288768	     -6.69525783	     -0.84274018	      0.87569699	      0.55396064	     40.20129434	     -4.83476519	    -14.88923042	    100.29906902	    100.29906902	     -2.28837644	      0.00000000	      0.00000000	     23.71875757	    -15.38529825	     10.61913745	     29.42152462	     29.42152462	     -1.30637561	      0.00000000	      0.00000000	    -41.74068105	    -13.54992085	     10.88403588	    -52.90798608	    -19.40880492	    -20.98503613	    101.30640324	     87.80525076	      0.00000000	      0.00000000	     17.03185454	    -12.20155185	     -5.10088143	    123.86989939	     74.46098258	      0.00000000	      0.00000000
      1.53500000	      6.03533366	     11.20391343	     -6.13425180	     -0.81922790	      0.87148562	      0.55532844	     41.63863893	     -6.14713540	    -15.85950997	    100.32192778	    100.32192778	     -1.01751207	      0.00000000	      0.00000000	     23.20495052	    -15.57538829	      9.73413484	     31.56627168	     31.56627168	      1.78473483	      0.00000000	      0.00000000	    -42.55139669	    -12.76622121	      9.69591119	    -52.28002529	    -18.97862594	    -20.51153886	     99.13317131	     87.51293680	      0.00000000	      0.00000000	     19.42823722	    -12.38416983	     -3.91940337	    124.93921430	     68.15413680	      0.00000000	      0.00000000
      1.54000000	      6.20380841	     11.25324023	     -5.38406430	     -0.79575294	      0.86756981	      0.55697938	     43.11158170	     -7.57165645	    -16.89577150	    100.03835359	    100.03835359	      0.13945427	      0.00000000	      0.00000000	     22.78350090	    -15.77362243	      8.98170162	     33.57021311	     33.57021311	      4.55155619	      0.00000000	      0.00000000	    -43.26093662	    -11.88890373	      8.22796852	    -51.49368004	    -18.54850903	    -19.96427818	     96.84749605	     87.09581996	      0.00000000	      0.00000000	     21.80739192	    -12.79903657	     -2.74144427	    126.20652688	     58.31771488	      0.00000000	      0.00000000
      1.54500000	      6.27557168	     11.33325183	     -4.49083513	     -0.77227523	      0.86398438	      0.55895967	     44.61334598	     -9.08148624	    -17.96783799	     99.45107870	     99.45107870	      1.11134956	      0.00000000	      0.00000000	     22.41657055	    -15.98976972	      8.38805678	     35.41642763	     35.41642763	      6.98498724	      0.00000000	      0.00000000	    -43.85882876	    -10.92724101	      6.52510676	    -50.61804943	    -18.14080543	    -19.35263288	     94.55295835	     86.51098723	      0.00000000	      0.00000000	     24.16930275	    -13.41983207	     -1.83972742	    127.43464260	     49.21318976	      0.00000000	      0.00000000
      1.55000000	      6.27099878	     11.43349536	     -3.51526649	     -0.74873618	      0.86076103	      0.56129628	     46.12359871	    -10.63664679	    -19.04018029	     98.56715974	     98.56715974	      1.85614507	      0.00000000	      0.00000000	     22.04528272	    -16.23985883	      7.93836097	     37.08564143	     37.08564143	      9.10197527	      0.00000000	      0.00000000	    -44.33678533	     -9.89752889	      4.65659548	    -49.73787214	    -17.77554367	    -18.69097890	     92.35931557	     85.70682190	      0.00000000	      0.00000000	     26.47540038	    -14.21444624	     -1.27439188	    128.39794861	     43.61175626	      0.00000000	      0.00000000
      1.55500000	      6.21515553	     11.54200469	     -2.51997075	     -0.72507155	      0.85793997	      0.56399885	     47.60185503	    -12.18796958	    -20.08185896	     97.39535010	     97.39535010	      2.39838059	      0.00000000	      0.00000000	     21.60320219	    -16.54105328	      7.60153162	     38.55187636	     38.55187636	     10.92365724	      0.00000000	      0.00000000	    -44.69211131	     -8.81898837	      2.69660890	    -48.93617610	    -17.47080788	    -17.99635315	     90.37539658	     84.65473673	      0.00000000	      0.00000000	     28.64569859	    -15.15485169	     -0.95348080	    129.15598779	     40.38749302	      0.00000000	      0.00000000
      1.56000000	      6.12606524	     11.64880412	     -1.55932821	     -0.70122912	      0.85555201	      0.56706161	     49.00712100	    -13.68574785	    -21.07019800	     95.94577795	     95.94577795	      2.80006050	      0.00000000	      0.00000000	     21.03642345	    -16.90311403	      7.35362111	     39.78646779	     39.78646779	     12.46957875	      0.00000000	      0.00000000	    -44.92175256	     -7.71166948	      0.70556560	    -48.27937652	    -17.24786854	    -17.28348548	     88.69617470	     83.42247894	      0.00000000	      0.00000000	     30.59828193	    -16.20731050	     -0.84132558	    129.79641743	     38.41140169	      0.00000000	      0.00000000
      1.56500000	      6.00617986	     11.74861535	     -0.67530019	     -0.67717945	      0.85359468	      0.57046994	     50.32341819	    -15.08659962	    -21.98687515	     94.22908433	     94.22908433	      3.10537615	      0.00000000	      0.00000000	     20.31808898	    -17.32300760	      7.18523200	     40.76685136	     40.76685136	     13.75559805	      0.00000000	      0.00000000	    -45.01432475	     -6.59738958	     -1.26854419	    -47.81619746	    -17.12167794	    -16.57942549	     87.39265943	     82.27853006	      0.00000000	      0.00000000	     32.25906849	    -17.33742205	     -0.93870852	    130.37263681	     37.14476244	      0.00000000	      0.00000000
